<?xml version="1.0" standalone="no"?>
<!DOCTYPE svg PUBLIC "-//W3C//DTD SVG 20010904//EN"
 "http://www.w3.org/TR/2001/REC-SVG-20010904/DTD/svg10.dtd">
<svg version="1.0" xmlns="http://www.w3.org/2000/svg"
 width="512.000000pt" height="512.000000pt" viewBox="0 0 512.000000 512.000000"
 preserveAspectRatio="xMidYMid meet">
<metadata>
Created by potrace 1.14, written by Peter Selinger 2001-2017
</metadata>
<g transform="translate(0.000000,512.000000) scale(0.100000,-0.100000)"
fill="#000000" stroke="none">
<path d="M2617 4674 c-1 -1 -66 -4 -145 -7 -79 -4 -146 -8 -150 -10 -4 -3 -31
-8 -61 -11 -166 -20 -432 -101 -606 -186 -230 -112 -398 -233 -580 -415 -345
-344 -575 -802 -660 -1310 -9 -55 -18 -101 -20 -103 -1 -2 -19 7 -39 19 -49
29 -144 30 -206 2 -56 -25 -112 -85 -135 -147 -22 -57 -16 -145 14 -203 37
-73 127 -133 200 -133 l21 0 0 -590 0 -590 -36 0 c-43 0 -89 -30 -102 -67 -5
-16 -9 -107 -9 -203 -1 -192 6 -224 52 -254 27 -18 101 -18 1891 -17 1127 1
1874 5 1888 11 54 20 61 48 62 250 2 147 -1 192 -13 218 -18 38 -58 62 -103
62 l-30 0 0 590 0 590 31 0 c67 0 160 68 194 141 91 197 -83 407 -292 353 -30
-8 -55 -14 -56 -14 -1 0 -1 153 0 340 1 337 1 340 26 392 29 64 72 109 129
140 61 32 185 32 245 1 33 -18 375 -256 406 -284 5 -4 1 -19 -8 -33 -10 -15
-23 -51 -30 -81 -47 -200 104 -390 310 -388 143 1 274 103 303 238 25 116 -4
221 -82 299 -67 68 -124 91 -225 92 l-85 1 -36 89 c-118 289 -301 523 -601
769 -73 60 -261 175 -383 235 -241 117 -485 186 -730 206 -66 5 -344 12 -349
8z"/>
</g>
</svg>
